<svg id="Layer_1" data-name="Layer 1" xmlns="http://www.w3.org/2000/svg" viewBox="0 0 366.67 366.67"><defs><style>.cls-1{fill:#c79b66;}.cls-2{fill:none;stroke:#606060;stroke-miterlimit:10;stroke-width:8px;}</style></defs><path class="cls-1" d="M179.81,90.51c7.74,2.28,14.77,5.7,20.42,11.75,12.21,13.08,13.38,33.53,2.5,47.57-.74,1-1.34,2.74-2.9,2.15-1.23-.48-.81-2.12-.79-3.27.08-5.42,0-10.78,1-16.22,3-15.64-8.17-30.76-23.29-32.28-17.11-1.72-31.27,9.91-31.64,26.47-.14,6.31,1.68,12.6,1.25,19-.09,1.32,0,2.65-.06,4,0,.77.09,1.72-.76,2.11s-1.4-.52-1.85-1.08c-6-7.47-9.12-16.09-8.14-25.52,1.75-16.94,10.81-28.4,27.34-33.55a22.8,22.8,0,0,0,2.54-1.12Z" transform="translate(-9 -8.29)"/><path class="cls-1" d="M152.86,206.61c1-1.61.59-3.1.59-4.5q0-36.47,0-72.92c0-6.78,2.24-12.51,7.72-16.7,6.05-4.62,12.68-5.27,19.51-2.15,7.36,3.37,11.05,9.48,11.18,17.44.21,12.35.12,24.7,0,37.05,0,2.92.38,4.31,3.93,3.88,4.93-.61,9.45,1.24,13.33,4.28a5.29,5.29,0,0,0,5.79,1c6.55-2.49,12.55-1,17.91,3.22a4.66,4.66,0,0,0,4.69,1c13.5-3.7,24.39,3.52,24.91,17.6.67,18.44.48,36.92.12,55.38-.23,11.83-9.55,19.44-20.5,19.17-21.37-.54-42.77-.22-64.15-.14a35.35,35.35,0,0,1-25.54-10.36c-12-11.67-23.7-23.63-35.4-35.6-8-8.17-7.94-19.8-.16-27.47s19.17-7.07,27.35,1.15C147,200.79,149.91,203.65,152.86,206.61Zm10.22-32q0,23.1,0,46.22c0,1.93.36,4.28-1.87,5.27s-3.59-1.11-4.92-2.48c-6.39-6.57-12.72-13.2-19.12-19.75-2.81-2.89-6.24-4-10.18-2.77a9.32,9.32,0,0,0-6.55,7.83c-.64,3.88,1.14,6.9,3.81,9.58C135.65,230,147,241.6,158.47,253c4.87,4.83,11,7.88,17.79,8,22.44.28,44.89.2,67.33.08,5.86,0,9.42-3.74,9.47-9.63q.19-27.48.06-55c0-5.17-2.26-8.45-6.12-9.75s-7.61-.05-10.86,3.84c-.85,1-1.52,2.33-3.1,2.14-1.79-.22-2-1.74-2.54-3.15-2.93-8.38-11.67-10-17.47-3.19-2.82,3.3-4.17,3.11-5.73-.81-2.21-5.52-5.91-7.78-11.79-7.3a10.68,10.68,0,0,0-7.74,4.36c-.85,1.07-1.77,2.09-3.33,1.48s-1.64-1.95-1.66-3.32c0-1.2,0-2.39,0-3.59,0-16.2.08-32.41-.07-48.61-.05-6.72-4.25-10.85-10.27-10.72s-9.33,4.11-9.34,11Q163.07,151.7,163.08,174.62Z" transform="translate(-9 -8.29)"/><circle class="cls-2" cx="183.33" cy="183.33" r="179.33"/></svg>