<svg id="Layer_1" data-name="Layer 1" xmlns="http://www.w3.org/2000/svg" viewBox="0 0 366.67 366.67"><defs><style>.cls-1{fill:#c79b66;}.cls-2{fill:none;stroke:#606060;stroke-miterlimit:10;stroke-width:8px;}</style></defs><path class="cls-1" d="M164.6,115q24.78,0,49.57,0c9.69,0,13.29,3.21,14,12.89.2,3,1.26,3.59,4,3.51,7.49-.21,15,.07,22.48-.15,6.46-.19,11,2.28,14.18,8,6.46,11.61,13.19,23.06,19.86,34.55A19.62,19.62,0,0,1,291.43,184c0,5.11.09,10.22,0,15.33s0,9.75,4.35,13.94,3.94,21.16.61,26a9.63,9.63,0,0,1-7.26,4.25,73.87,73.87,0,0,1-9.17.4c-3.34-.08-4.77,1.37-5.48,4.62-2.7,12.26-12,19.78-23.86,19.69-10.88-.08-20.18-7.7-22.74-19.2-.89-4-2.81-5.17-6.66-5.13q-25.29.21-50.59,0c-3.68,0-5.26,1.06-6,5a23.51,23.51,0,0,1-23.11,19.38c-11,.15-20.74-7.6-23.31-19.14-.88-3.91-2.49-5.68-6.49-5.16a23.64,23.64,0,0,1-3.57,0c-10.44-.23-14-3.87-14.06-14.38,0-3.23,0-6.47,0-9.7,0-2.81.53-6,2.81-7.42,4.69-3,4.15-7.29,4.14-11.7q-.06-36,0-72.05c0-9.83,3.76-13.69,13.49-13.72C131.22,114.94,147.91,115,164.6,115Zm.75,93.34c16.86,0,33.72-.11,50.58.08,3.71,0,5.09-.84,5.07-4.78q-.23-37.55,0-75.1c0-4.76-2-6.18-6.45-6.16q-49.82.15-99.63,0c-4.93,0-6.56,1.88-6.53,6.65.14,24.18,0,48.37.08,72.55,0,6,.72,6.73,6.83,6.74C132,208.33,148.66,208.3,165.35,208.31Zm30.58,7.28h-79.7c-3.41,0-6.82.06-10.22,0-2.91,0-4.49,1.22-4.46,4.25,0,4.08,0,8.17,0,12.26a4.05,4.05,0,0,0,1.69,3.53c3.65,2.58,14.84.37,17.23-3.42,10.18-16.11,31.31-16,41.17.39,1.58,2.63,3.2,3.92,6.38,3.9,18.57-.13,37.13-.1,55.69,0a6.28,6.28,0,0,0,6.15-3.42c10.47-17.18,31.11-17.1,41.93,0,.9,1.43,1.56,2.89,3.56,3.32,11.72,2.55,14.94,0,14.93-11.94,0-.68,0-1.37,0-2-.06-6.55-.31-6.83-7-6.83Q239.62,215.57,195.93,215.59ZM228.35,174c0,10.05.07,20.1,0,30.15,0,2.88.57,4.31,3.94,4.27,16-.16,32-.13,48,0,3,0,3.83-1.09,3.78-3.89-.13-7.15-.09-14.31,0-21.46a12.17,12.17,0,0,0-1.84-6.28c-6.48-11.21-13-22.4-19.37-33.66-1.69-3-3.9-4.46-7.39-4.39-6.81.13-13.63.16-20.44,0-4.75-.11-6.81,1.79-6.71,6.66C228.49,154.89,228.36,164.43,228.35,174Zm22.23,86.43a16.53,16.53,0,0,0,16.95-16.13,16.35,16.35,0,0,0-16.46-16.56c-9.49-.06-16.63,6.84-16.7,16.16C234.29,253.49,241,260.35,250.58,260.4Zm-109.79,0c9.6.08,16.6-6.7,16.68-16.16a16,16,0,0,0-16.32-16.53,16.35,16.35,0,1,0-.36,32.69Z" transform="translate(-6.89 -5.78)"/><path class="cls-1" d="M186.43,177.05c2.86-3.38,5.68-6.8,8.61-10.11,1.19-1.33,1.79-2.38.16-3.82-3.28-2.92-6.47-5.94-10.41-9.57-.4,5.76-4.18,5.64-7.84,5.65q-12.27,0-24.54,0a22.33,22.33,0,0,1-3.06-.16c-2.26-.32-3.89-1.51-4-3.91-.08-2.56,1.73-3.7,4-3.77,6.81-.21,13.63-.43,20.43-.25,4.5.12,7.39-.48,7.65-6.05.2-4.42,3.51-5.61,6.68-2.69,6.78,6.22,13.31,12.71,19.94,19.09,2.12,2,2.17,4.17.08,6.21-6.59,6.42-13.1,12.93-19.89,19.12-3.54,3.22-6.79,2-6.87-2.74-.09-5.49-2.6-6.44-7.31-6.2-6.46.33-13,.09-19.42.06-2.49,0-5.2-.23-5.15-3.49s2.81-3.37,5.27-3.37c9.37,0,18.74,0,28.11,0,3.41,0,5.69,1.08,5.71,5.12Z" transform="translate(-6.89 -5.78)"/><path class="cls-1" d="M127.45,169.4a46.66,46.66,0,0,1,5.55,0,3.35,3.35,0,0,1,3.26,3.29,3.3,3.3,0,0,1-3.34,3.7,101.49,101.49,0,0,1-10.61.05c-2-.08-3.64-1.07-3.75-3.35-.13-2.59,1.61-3.57,3.83-3.78,1.67-.16,3.37,0,5.06,0Z" transform="translate(-6.89 -5.78)"/><path class="cls-1" d="M255.36,184c-4.6,0-9.2-.07-13.79,0-3.42.06-5.15-1.62-5.18-4.89-.08-9.19,0-18.39,0-27.58a4.73,4.73,0,0,1,1.88-4c4.4-3.19,17.75-.46,20.47,4.25,4.77,8.26,9.57,16.5,14.23,24.82,2.79,5,1.41,7.27-4.31,7.39C264.22,184.11,259.79,184,255.36,184Zm-2.58-6.89h8.89c2,0,2.48-1,1.55-2.58-3.54-6.19-7.08-12.39-10.75-18.51-1.49-2.48-4.1-2.16-6.44-1.75-2.87.51-2.24,3-2.31,4.93-.1,2.54,0,5.1,0,7.65C243.79,178.85,242.51,177,252.78,177.14Z" transform="translate(-6.89 -5.78)"/><circle class="cls-2" cx="183.33" cy="183.33" r="179.33"/></svg>