<svg id="Layer_1" data-name="Layer 1" xmlns="http://www.w3.org/2000/svg" viewBox="0 0 367.55 366.67"><defs><style>.cls-1{fill:none;stroke:#606060;stroke-miterlimit:10;stroke-width:8px;}.cls-2{fill:#0a0a0a;}.cls-3{fill:#c79b66;}.cls-4{fill:#fff;}</style></defs><circle class="cls-1" cx="184.22" cy="183.33" r="179.33"/><circle class="cls-1" cx="183.33" cy="183.33" r="179.33"/><path class="cls-2" d="M344,243c1-1.32,2.29-.27,3.43-.42A6.1,6.1,0,0,1,344,243Z" transform="translate(-90.79 -76.87)"/><path class="cls-3" d="M153.65,312c3.66-4.19,7.88-7.83,11.8-11.77,1.56-1.56,3.29-3,4.77-4.6,4.53-5,13.16-4.69,17.85,0q8.93,8.88,17.9,17.7c9,8.87,18,17.81,27.11,26.58,5.85,5.63,6.48,12.93.9,18.84-4.92,5.21-10.22,10.07-15.4,15-1.62,1.55-3.17,1.39-5-.4q-13.71-13.49-27.37-27-15.53-15.37-31-30.77c-.48-.47-1-.87-1.55-1.3Z" transform="translate(-90.79 -76.87)"/><path class="cls-3" d="M281.07,329.87c9.24,0,18.48-.1,27.72,0a29.08,29.08,0,0,0,18.66-6.26,194.63,194.63,0,0,0,41.06-43.05c3.73-5.29,7-10.89,10.48-16.34,4.43-6.91.63-10-5.66-10.85-9.88-1.33-15.62,1.83-20.44,10.65-1.39,2.54-2.93,5-4.47,7.45-2,3.2-5.06,5.28-8.19,7.14a107.3,107.3,0,0,1-13.84,7.07c-1.82.76-2.33,1.68-2.13,3.61a14.85,14.85,0,0,1-10.87,16.41,21.27,21.27,0,0,1-6.11.67l-44.44.1H261.7c-2.58-.11-4-1.35-4-3.42,0-2.23,1.49-3.5,4.1-3.51,15.73,0,31.46-.16,47.18.11,4.38.08,8.37-4.2,8.4-8.47s-3.5-7.64-8.24-7.68c-8.09-.06-16.19-.13-24.28-.06-8.73.08-16.46-2.43-23-8.34a16,16,0,0,0-10.91-4c-7-.05-14.05,0-21.07,0a22.35,22.35,0,0,0-16.4,6.87c-4.47,4.37-9,8.63-13.62,12.88a3.45,3.45,0,0,1-4.94,0,3.6,3.6,0,0,1-.21-5c6.16-5.81,11.79-12.2,18.8-17.05a31.49,31.49,0,0,1,18.12-5.34c7.09-.06,14.19-.33,21.27.43,6.3.67,11.77,3.42,16.86,7.08a23.9,23.9,0,0,0,14.35,4.47c8.17,0,16.34,0,24.5,0a15.56,15.56,0,0,1,10.72,3.87,2.42,2.42,0,0,0,3.08.5c4.55-2.47,9.08-5,13.7-7.33,5.18-2.62,7.88-7.3,10.26-12.18a25.67,25.67,0,0,1,35.09-11.75,11.89,11.89,0,0,1,4.58,16c-10.7,18.84-23.48,36-39.29,50.88-6.56,6.17-13.25,12.2-21.05,16.83A30.87,30.87,0,0,1,310,336.49c-19.09.12-38.18.05-57.27.06-2.75,0-5.46.17-7.94,1.63-1.33.77-2.35,0-3.18-1a3.54,3.54,0,0,1-.48-4.42,4.31,4.31,0,0,1,3-1.95,38.18,38.18,0,0,1,8.85-1Z" transform="translate(-90.79 -76.87)"/><path class="cls-3" d="M344.24,240.51c-1.41.27-2.83.53-4.24.81a1.71,1.71,0,0,0-.44.13c-2.94,1.15-5.44,9.35-3.66,12a31.32,31.32,0,0,1,1.91,2.84,3.89,3.89,0,0,1-1.33,5.4c-1.59,1-3.19.43-4.69-1.47-2.28-2.9-4.38-5.76-4.16-9.82.39-7.29,5.5-14.75,11.68-16.09a101.9,101.9,0,0,1,11.3-1.52,3.91,3.91,0,0,0,3.94-3.67,45.85,45.85,0,0,0,.14-8.92C354.58,218,353,217,351,216.7c-3.83-.61-7.68-1.1-11.49-1.83-4.23-.81-7.41-3-8.94-7.28-.77-2.14-2-4.1-2.56-6.34a11.07,11.07,0,0,1,1.86-9.75c2.25-3,4.5-6,6.7-9,2-2.74,1.81-4.33-.62-6.56-1.68-1.55-3.35-3.11-5.05-4.64-2-1.82-3.73-1.91-5.94-.29-3,2.21-6,4.46-9,6.67a10.7,10.7,0,0,1-12.18,1,21,21,0,0,0-3.17-1.32c-5.05-1.66-7.61-5.22-8.18-10.42-.37-3.32-.81-6.64-1.39-9.93a4.33,4.33,0,0,0-4.45-3.72c-2.52,0-5,0-7.56,0s-3.59,1.1-4,3.5c-.63,3.91-1.32,7.8-1.91,11.71a10.54,10.54,0,0,1-7.41,9c-3.06,1.08-5.8,3.11-9.26,3a9.84,9.84,0,0,1-5.74-1.87c-3.32-2.44-6.63-4.89-10-7.28-2.11-1.51-3.68-1.43-5.55.28s-3.77,3.55-5.58,5.41c-1.58,1.63-1.6,3.49-.2,5.39,2.44,3.31,4.9,6.61,7.35,9.93a10.08,10.08,0,0,1,1.31,10.15c-.81,2.14-1.62,4.28-2.5,6.39A10.1,10.1,0,0,1,228.9,215a66.2,66.2,0,0,1-12.33,2.16c-3.53.36-4.88,1.7-4.9,5.25,0,2,0,4,0,5.95.05,3.31,1.44,4.88,4.76,5.24s6.77.86,10.13,1.52c4.6.89,8,3.25,9.53,7.87,1,3.06,3.12,5.76,2.82,9.28-.23,2.69-1.3,4.19-3.48,4.24s-3.44-1.53-3.55-4.15c-.13-3.23-1.67-6-3.14-8.71-.64-1.18-2.08-1.5-3.36-1.72-3.83-.64-7.67-1.21-11.51-1.82a10.64,10.64,0,0,1-8.42-9.06c-.43-4.11-.9-8.21,0-12.29a11.3,11.3,0,0,1,9.73-9q5.63-.87,11.25-1.77a2.3,2.3,0,0,0,1.08-.35c2.65-2.06,2.84-5.43,4.22-8.16.75-1.5-.39-2.9-1.35-4.13-2-2.59-4-5.21-6-7.78-3.88-4.91-3.65-10.81.67-15.33,2.27-2.37,4.58-4.7,6.9-7,3.37-3.38,8.28-3.34,12.67,0,2.67,2,5.43,4,8,6.05,2.32,1.85,4.6,2.11,7.13.51a8,8,0,0,1,2.53-1c3.07-.66,3.71-2.94,4-5.59.5-4.07.86-8.18,2.14-12.11a10.45,10.45,0,0,1,10.19-7.33h7.79A11.59,11.59,0,0,1,298.4,156c.46,3.09.89,6.19,1.35,9.29.35,2.43,1.4,4.31,3.94,5.08a18.72,18.72,0,0,1,2.76,1.11c2.85,1.39,5.31,1,7.73-1.15s4.92-3.85,7.44-5.71a11.42,11.42,0,0,1,14.17.66,97.24,97.24,0,0,1,6.94,7,10.29,10.29,0,0,1,.73,13.44q-3.36,4.77-7,9.36c-1.51,1.92-1.81,3.79-.53,5.89a4.66,4.66,0,0,1,.58,1.24c1.17,5,4.9,6,9.3,6.25a39,39,0,0,1,8.31,1.38,9.9,9.9,0,0,1,7.26,7.27,29.13,29.13,0,0,1,.19,13.61c-1.32,6.58-6.05,9.52-13.92,9.4C346.58,240.59,345.31,239.73,344.24,240.51Z" transform="translate(-90.79 -76.87)"/><path class="cls-3" d="M244.77,224.32A37.77,37.77,0,0,1,283.34,187c21.33.4,38,16.37,37.86,37.74-.11,21-17.43,37.33-38.63,37.28A37.74,37.74,0,0,1,244.77,224.32Z" transform="translate(-90.79 -76.87)"/><circle class="cls-4" cx="192.2" cy="147.68" r="31.37"/></svg>